<svg width="42" height="42" viewBox="0 0 42 42" fill="none" xmlns="http://www.w3.org/2000/svg">
<path d="M39.55 42C34.6889 42 29.8861 40.9407 25.1417 38.822C20.3972 36.7033 16.0806 33.6988 12.1917 29.8083C8.30278 25.9179 5.299 21.6012 3.18033 16.8583C1.06167 12.1154 0.00155556 7.31267 0 2.45C0 1.75 0.233333 1.16667 0.7 0.7C1.16667 0.233333 1.75 0 2.45 0H11.9C12.4444 0 12.9306 0.185111 13.3583 0.555333C13.7861 0.925555 14.0389 1.36267 14.1167 1.86667L15.6333 10.0333C15.7111 10.6556 15.6917 11.1806 15.575 11.6083C15.4583 12.0361 15.2444 12.4056 14.9333 12.7167L9.275 18.4333C10.0528 19.8722 10.976 21.2621 12.0447 22.603C13.1133 23.9439 14.2901 25.2373 15.575 26.4833C16.7806 27.6889 18.0444 28.8073 19.3667 29.8387C20.6889 30.87 22.0889 31.8127 23.5667 32.6667L29.05 27.1833C29.4 26.8333 29.8573 26.5712 30.422 26.397C30.9867 26.2228 31.5404 26.1738 32.0833 26.25L40.1333 27.8833C40.6778 28.0389 41.125 28.3212 41.475 28.7303C41.825 29.1394 42 29.596 42 30.1V39.55C42 40.25 41.7667 40.8333 41.3 41.3C40.8333 41.7667 40.25 42 39.55 42Z" fill="#1D3557"/>
</svg>
