<svg width="44" height="36" viewBox="0 0 44 36" fill="none" xmlns="http://www.w3.org/2000/svg">
<path d="M43.6673 8.32593V28.8334C43.6674 30.4914 43.0339 32.0867 41.8965 33.293C40.7591 34.4993 39.2038 35.2253 37.5487 35.3226L37.1673 35.3334H6.83398C5.17603 35.3335 3.5807 34.7001 2.37442 33.5626C1.16814 32.4252 0.442085 30.8699 0.344818 29.2148L0.333984 28.8334V8.32593L20.7982 21.9694L21.0495 22.1124C21.3457 22.2571 21.671 22.3324 22.0007 22.3324C22.3303 22.3324 22.6556 22.2571 22.9518 22.1124L23.2032 21.9694L43.6673 8.32593Z" fill="#1D3557"/>
<path d="M37.168 0.666748C39.508 0.666748 41.5598 1.90175 42.7038 3.75858L22.0013 17.5602L1.29883 3.75858C1.84221 2.87637 2.58862 2.13683 3.47583 1.60164C4.36304 1.06645 5.36534 0.751112 6.39916 0.681915L6.83466 0.666748H37.168Z" fill="#1D3557"/>
</svg>
