<svg width="44" height="44" viewBox="0 0 44 44" fill="none" xmlns="http://www.w3.org/2000/svg">
<path d="M40.5944 10.25C34.0631 0.125009 20.6881 -2.87499 10.3444 3.40626C0.250644 9.68751 -2.99936 23.375 3.53189 33.4688L4.06314 34.2813L1.87564 42.4688L10.0631 40.2813L10.8756 40.8125C14.4069 42.7188 18.2506 43.8125 22.0631 43.8125C26.1569 43.8125 30.2506 42.7188 33.7819 40.5313C43.8756 33.9688 46.8756 20.5625 40.5944 10.1875V10.25ZM34.8756 31.3125C33.7819 32.9375 32.4069 34.0313 30.5006 34.3125C29.4069 34.3125 28.0319 34.8438 22.5944 32.6875C17.9694 30.5 14.1256 26.9375 11.4069 22.8438C9.78189 20.9375 8.93814 18.4688 8.68814 16C8.68814 13.8125 9.50064 11.9063 10.8756 10.5313C11.4069 10 11.9694 9.71876 12.5006 9.71876H13.8756C14.4069 9.71876 14.9694 9.71876 15.2506 10.8125C15.7819 12.1875 17.1569 15.4688 17.1569 15.75C17.4381 16.0313 17.3131 18.125 16.0631 19.3125C15.3756 20.0938 15.2506 20.125 15.5319 20.6875C16.6256 22.3125 18.0006 23.9688 19.3444 25.3438C20.9694 26.7188 22.6256 27.8125 24.5319 28.625C25.0631 28.9063 25.6256 28.9063 25.9069 28.3438C26.1881 27.8125 27.5319 26.4375 28.0944 25.875C28.6256 25.3438 28.9069 25.3438 29.4694 25.5938L33.8444 27.7813C34.3756 28.0625 34.9381 28.3125 35.2194 28.5938C35.5006 29.4063 35.5006 30.5 34.9381 31.3125H34.8756Z" fill="#1D3557"/>
</svg>
