<svg xmlns="http://www.w3.org/2000/svg" xmlns:xlink="http://www.w3.org/1999/xlink" width="2000" zoomAndPan="magnify" viewBox="0 0 1500 1499.999933" height="2000" preserveAspectRatio="xMidYMid meet" version="1.0"><defs><g/><clipPath id="5d3e9c6c5a"><rect x="0" width="53" y="0" height="47"/></clipPath></defs><g fill="#ffd000" fill-opacity="1"><g transform="translate(223.172504, 923.9999)"><g><path d="M 50.796875 57.203125 C 40.398438 57.203125 32.332031 53.132812 26.59375 45 C 20.863281 36.863281 16.863281 26.257812 14.59375 13.1875 C 12.332031 0.125 11 -13.867188 10.59375 -28.796875 C 10.195312 -43.734375 10 -57.867188 10 -71.203125 C 10 -82.929688 10.332031 -95.53125 11 -109 C 11.664062 -122.46875 13.265625 -135.265625 15.796875 -147.390625 C 18.328125 -159.523438 22.660156 -169.457031 28.796875 -177.1875 C 34.929688 -184.925781 43.332031 -188.796875 54 -188.796875 C 62.269531 -188.796875 68.671875 -187.195312 73.203125 -184 C 77.734375 -180.800781 81.195312 -177.066406 83.59375 -172.796875 C 89.726562 -177.328125 97.328125 -180.992188 106.390625 -183.796875 C 115.460938 -186.597656 125.195312 -188 135.59375 -188 C 152.925781 -188 168.726562 -183.734375 183 -175.203125 C 197.269531 -166.671875 208.671875 -155.269531 217.203125 -141 C 225.734375 -126.726562 230 -110.925781 230 -93.59375 C 230 -76.257812 225.734375 -60.394531 217.203125 -46 C 208.671875 -31.601562 197.269531 -20.132812 183 -11.59375 C 168.726562 -3.0625 152.925781 1.203125 135.59375 1.203125 C 124.925781 1.203125 115.0625 -0.195312 106 -3 C 96.9375 -5.800781 89.335938 -9.601562 83.203125 -14.40625 C 83.203125 -1.070312 82.734375 11.0625 81.796875 22 C 80.867188 32.9375 78.132812 41.535156 73.59375 47.796875 C 69.0625 54.066406 61.460938 57.203125 50.796875 57.203125 Z M 133.59375 -65.203125 C 140.53125 -65.203125 146.597656 -67.800781 151.796875 -73 C 156.992188 -78.195312 159.59375 -84.265625 159.59375 -91.203125 C 159.59375 -98.128906 156.992188 -104.191406 151.796875 -109.390625 C 146.597656 -114.597656 140.53125 -117.203125 133.59375 -117.203125 C 126.664062 -117.203125 120.597656 -114.597656 115.390625 -109.390625 C 110.191406 -104.191406 107.59375 -98.128906 107.59375 -91.203125 C 107.59375 -84.265625 110.191406 -78.195312 115.390625 -73 C 120.597656 -67.800781 126.664062 -65.203125 133.59375 -65.203125 Z M 133.59375 -65.203125 "/></g></g></g><g fill="#ffd000" fill-opacity="1"><g transform="translate(444.977131, 923.9999)"><g><path d="M 110.40625 0 C 90.40625 0 72.867188 -3.929688 57.796875 -11.796875 C 42.734375 -19.660156 31 -30.457031 22.59375 -44.1875 C 14.195312 -57.925781 10 -73.726562 10 -91.59375 C 10 -108.925781 14.195312 -124.925781 22.59375 -139.59375 C 31 -154.257812 42.597656 -165.992188 57.390625 -174.796875 C 72.191406 -183.597656 89.195312 -188 108.40625 -188 C 126.269531 -188 141.597656 -184.398438 154.390625 -177.203125 C 167.191406 -170.003906 176.992188 -160.867188 183.796875 -149.796875 C 190.597656 -138.734375 194 -127.066406 194 -114.796875 C 194 -102.535156 191.195312 -92.46875 185.59375 -84.59375 C 180 -76.726562 172.734375 -70.726562 163.796875 -66.59375 C 154.867188 -62.46875 145.335938 -59.738281 135.203125 -58.40625 C 125.066406 -57.070312 115.332031 -56.867188 106 -57.796875 C 96.664062 -58.734375 88.800781 -60.269531 82.40625 -62.40625 C 87.195312 -54.664062 93.257812 -49.394531 100.59375 -46.59375 C 107.925781 -43.800781 115.660156 -42.601562 123.796875 -43 C 131.929688 -43.394531 139.332031 -44.257812 146 -45.59375 C 154.269531 -47.46875 161.070312 -47.070312 166.40625 -44.40625 C 171.738281 -41.738281 174.535156 -37.46875 174.796875 -31.59375 C 175.066406 -26.800781 173.398438 -22.003906 169.796875 -17.203125 C 166.203125 -12.398438 159.738281 -8.332031 150.40625 -5 C 141.070312 -1.664062 127.738281 0 110.40625 0 Z M 83.59375 -111.203125 C 86.257812 -106.929688 90.125 -103.925781 95.1875 -102.1875 C 100.257812 -100.457031 105.394531 -99.859375 110.59375 -100.390625 C 115.800781 -100.929688 120.203125 -102.398438 123.796875 -104.796875 C 127.398438 -107.203125 129.203125 -110.535156 129.203125 -114.796875 C 129.203125 -119.328125 127.398438 -123.394531 123.796875 -127 C 120.203125 -130.601562 114.535156 -132.40625 106.796875 -132.40625 C 99.328125 -132.40625 93.59375 -130.070312 89.59375 -125.40625 C 85.59375 -120.738281 83.59375 -116.003906 83.59375 -111.203125 Z M 83.59375 -111.203125 "/></g></g></g><g fill="#ffd000" fill-opacity="1"><g transform="translate(620.975543, 923.9999)"><g><path d="M 134.796875 0 C 125.460938 0 115.992188 -1.863281 106.390625 -5.59375 C 96.796875 -9.332031 88.195312 -14.800781 80.59375 -22 C 73 -29.195312 67.46875 -37.863281 64 -48 C 61.601562 -54.664062 59.867188 -62.929688 58.796875 -72.796875 C 57.734375 -82.660156 57 -93.191406 56.59375 -104.390625 C 56.195312 -115.597656 56 -126.535156 56 -137.203125 C 45.601562 -137.460938 35.671875 -138.394531 26.203125 -140 C 16.734375 -141.601562 9 -144.601562 3 -149 C -3 -153.394531 -6 -159.863281 -6 -168.40625 C -6 -178.800781 -3.203125 -186.597656 2.390625 -191.796875 C 7.992188 -196.992188 15.53125 -200.457031 25 -202.1875 C 34.46875 -203.925781 44.800781 -204.929688 56 -205.203125 C 56.269531 -213.460938 57.003906 -221.925781 58.203125 -230.59375 C 59.398438 -239.257812 61.460938 -247.328125 64.390625 -254.796875 C 67.328125 -262.265625 71.460938 -268.332031 76.796875 -273 C 82.128906 -277.664062 89.0625 -280 97.59375 -280 C 109.0625 -280 117.394531 -276.398438 122.59375 -269.203125 C 127.800781 -262.003906 131.070312 -252.671875 132.40625 -241.203125 C 133.738281 -229.734375 134.269531 -217.734375 134 -205.203125 C 147.863281 -205.460938 160.128906 -204.925781 170.796875 -203.59375 C 181.460938 -202.257812 189.863281 -199.328125 196 -194.796875 C 202.132812 -190.265625 205.203125 -183.066406 205.203125 -173.203125 C 205.203125 -163.066406 201.734375 -155.460938 194.796875 -150.390625 C 187.867188 -145.328125 178.800781 -141.925781 167.59375 -140.1875 C 156.394531 -138.457031 144.53125 -137.460938 132 -137.203125 C 132 -132.128906 131.929688 -126.859375 131.796875 -121.390625 C 131.660156 -115.929688 131.59375 -110.398438 131.59375 -104.796875 C 131.59375 -89.597656 132.660156 -78.800781 134.796875 -72.40625 C 136.398438 -67.601562 138.597656 -64.535156 141.390625 -63.203125 C 144.191406 -61.867188 147.726562 -61.132812 152 -61 C 156.269531 -60.863281 161.46875 -60 167.59375 -58.40625 C 173.726562 -57.070312 178.53125 -53.800781 182 -48.59375 C 185.46875 -43.394531 187.203125 -36.796875 187.203125 -28.796875 C 187.203125 -19.734375 182.46875 -12.664062 173 -7.59375 C 163.53125 -2.53125 150.796875 0 134.796875 0 Z M 134.796875 0 "/></g></g></g><g fill="#ffd000" fill-opacity="1"><g transform="translate(804.173955, 923.9999)"><g><path d="M 52.796875 0 C 43.734375 0 36.332031 -3 30.59375 -9 C 24.863281 -15 20.53125 -23.066406 17.59375 -33.203125 C 14.664062 -43.335938 12.664062 -54.9375 11.59375 -68 C 10.53125 -81.0625 10 -94.53125 10 -108.40625 C 10 -117.738281 10.195312 -127.269531 10.59375 -137 C 11 -146.726562 12.332031 -155.726562 14.59375 -164 C 16.863281 -172.269531 20.734375 -179.003906 26.203125 -184.203125 C 31.671875 -189.398438 39.46875 -192 49.59375 -192 C 56.800781 -192 63.335938 -190.332031 69.203125 -187 C 75.066406 -183.664062 78.800781 -178.664062 80.40625 -172 C 86.53125 -177.601562 94.328125 -181.671875 103.796875 -184.203125 C 113.265625 -186.734375 123.066406 -188 133.203125 -188 C 141.734375 -188 150.398438 -185.929688 159.203125 -181.796875 C 168.003906 -177.660156 175.46875 -171.992188 181.59375 -164.796875 C 187.726562 -157.597656 190.796875 -149.46875 190.796875 -140.40625 C 190.796875 -132.664062 187.925781 -125.328125 182.1875 -118.390625 C 176.457031 -111.460938 168.394531 -108 158 -108 C 153.46875 -108 149.734375 -108.597656 146.796875 -109.796875 C 143.867188 -110.992188 141.070312 -112.125 138.40625 -113.1875 C 135.738281 -114.257812 132.535156 -114.796875 128.796875 -114.796875 C 118.929688 -114.796875 109.929688 -110.863281 101.796875 -103 C 93.660156 -95.132812 89.59375 -84.535156 89.59375 -71.203125 C 89.59375 -64.265625 89.394531 -56.726562 89 -48.59375 C 88.601562 -40.46875 87.40625 -32.671875 85.40625 -25.203125 C 83.40625 -17.734375 79.867188 -11.664062 74.796875 -7 C 69.734375 -2.332031 62.398438 0 52.796875 0 Z M 52.796875 0 "/></g></g></g><g fill="#ffd000" fill-opacity="1"><g transform="translate(972.972421, 923.9999)"><g><path d="M 56.796875 -194 C 43.734375 -194 32.664062 -198.734375 23.59375 -208.203125 C 14.53125 -217.671875 10 -229.203125 10 -242.796875 C 10 -251.867188 12.066406 -260.003906 16.203125 -267.203125 C 20.335938 -274.398438 25.9375 -280.195312 33 -284.59375 C 40.0625 -289 47.992188 -291.203125 56.796875 -291.203125 C 65.328125 -291.203125 73.125 -289 80.1875 -284.59375 C 87.257812 -280.195312 92.925781 -274.398438 97.1875 -267.203125 C 101.457031 -260.003906 103.59375 -251.867188 103.59375 -242.796875 C 103.59375 -233.734375 101.457031 -225.535156 97.1875 -218.203125 C 92.925781 -210.867188 87.257812 -205 80.1875 -200.59375 C 73.125 -196.195312 65.328125 -194 56.796875 -194 Z M 56.796875 0 C 46.128906 0 38.195312 -3.066406 33 -9.203125 C 27.800781 -15.335938 24.332031 -24.738281 22.59375 -37.40625 C 20.863281 -50.070312 19.863281 -66.40625 19.59375 -86.40625 C 19.59375 -106.40625 20.457031 -122.800781 22.1875 -135.59375 C 23.925781 -148.394531 27.460938 -157.796875 32.796875 -163.796875 C 38.128906 -169.796875 46.128906 -172.796875 56.796875 -172.796875 C 67.460938 -172.796875 75.394531 -169.796875 80.59375 -163.796875 C 85.800781 -157.796875 89.335938 -148.394531 91.203125 -135.59375 C 93.066406 -122.800781 94 -106.40625 94 -86.40625 C 94.269531 -66.40625 93.46875 -50.070312 91.59375 -37.40625 C 89.726562 -24.738281 86.128906 -15.335938 80.796875 -9.203125 C 75.460938 -3.066406 67.460938 0 56.796875 0 Z M 56.796875 0 "/></g></g></g><g fill="#ffd000" fill-opacity="1"><g transform="translate(1058.571565, 923.9999)"><g><path d="M 108 -0.40625 C 90.9375 -0.664062 74.9375 -4.863281 60 -13 C 45.0625 -21.132812 32.992188 -32.398438 23.796875 -46.796875 C 14.597656 -61.203125 10 -77.46875 10 -95.59375 C 10 -115.0625 14.597656 -131.660156 23.796875 -145.390625 C 32.992188 -159.128906 44.992188 -169.664062 59.796875 -177 C 74.597656 -184.332031 90.265625 -188 106.796875 -188 C 123.867188 -188 138.800781 -184.734375 151.59375 -178.203125 C 164.394531 -171.671875 174.328125 -163.269531 181.390625 -153 C 188.460938 -142.726562 192 -132.128906 192 -121.203125 C 192 -112.128906 189.265625 -104.992188 183.796875 -99.796875 C 178.328125 -94.597656 169.726562 -92 158 -92 C 151.601562 -92 146.738281 -93.265625 143.40625 -95.796875 C 140.070312 -98.328125 137.269531 -101.191406 135 -104.390625 C 132.726562 -107.597656 130.0625 -110.46875 127 -113 C 123.9375 -115.53125 119.46875 -116.796875 113.59375 -116.796875 C 106.664062 -116.796875 100.597656 -114.394531 95.390625 -109.59375 C 90.191406 -104.800781 87.59375 -98.40625 87.59375 -90.40625 C 87.59375 -82.132812 90.125 -75.664062 95.1875 -71 C 100.257812 -66.332031 106.394531 -64 113.59375 -64 C 119.195312 -64 123.460938 -64.863281 126.390625 -66.59375 C 129.328125 -68.332031 131.925781 -70.398438 134.1875 -72.796875 C 136.457031 -75.203125 139.328125 -77.269531 142.796875 -79 C 146.265625 -80.726562 151.332031 -81.59375 158 -81.59375 C 169.726562 -81.59375 178.328125 -78.457031 183.796875 -72.1875 C 189.265625 -65.925781 192 -59.332031 192 -52.40625 C 192 -43.601562 188.53125 -35.203125 181.59375 -27.203125 C 174.664062 -19.203125 164.929688 -12.734375 152.390625 -7.796875 C 139.859375 -2.867188 125.0625 -0.40625 108 -0.40625 Z M 108 -0.40625 "/></g></g></g><g transform="matrix(1, 0, 0, 1, 1224, 706)"><g clip-path="url(#5d3e9c6c5a)"><g fill="#ffd000" fill-opacity="1"><g transform="translate(1.042311, 36.872861)"><g><path d="M 19.3125 -24.09375 L 19.3125 -20.09375 L 12.359375 -20.09375 L 12.359375 0 L 7.609375 0 L 7.609375 -20.09375 L 0.65625 -20.09375 L 0.65625 -24.09375 Z M 19.3125 -24.09375 "/></g></g></g><g fill="#ffd000" fill-opacity="1"><g transform="translate(21.014676, 36.872861)"><g><path d="M 7.5 0 L 3.125 0 L 3.125 -24.09375 L 9.359375 -24.09375 L 15.453125 -6.375 L 15.796875 -6.375 L 21.875 -24.09375 L 27.953125 -24.09375 L 27.953125 0 L 23.4375 0 L 23.4375 -15.921875 L 23.015625 -15.984375 L 17.453125 0 L 13.484375 0 L 7.90625 -15.984375 L 7.5 -15.921875 Z M 7.5 0 "/></g></g></g></g></g></svg>